<svg id="visual" viewBox="0 0 900 600" width="900" height="600" xmlns="http://www.w3.org/2000/svg" xmlns:xlink="http://www.w3.org/1999/xlink" version="1.1"><rect x="0" y="0" width="900" height="600" fill="#fbfbfb"></rect><defs><linearGradient id="grad1_0" x1="33.3%" y1="100%" x2="100%" y2="0%"><stop offset="20%" stop-color="#fbfbfb" stop-opacity="1"></stop><stop offset="80%" stop-color="#fbfbfb" stop-opacity="1"></stop></linearGradient></defs><defs><linearGradient id="grad2_0" x1="0%" y1="100%" x2="66.7%" y2="0%"><stop offset="20%" stop-color="#fbfbfb" stop-opacity="1"></stop><stop offset="80%" stop-color="#fbfbfb" stop-opacity="1"></stop></linearGradient></defs><g transform="translate(900, 600)"><path d="M-108.2 0C-107.4 -14.6 -106.6 -29.3 -99.9 -41.4C-93.2 -53.5 -80.6 -63.1 -68.6 -68.6C-56.5 -74.1 -45 -75.4 -33.7 -81.3C-22.3 -87.2 -11.2 -97.7 0 -108.2L0 0Z" fill="#FBAE3C"></path></g><g transform="translate(0, 0)"><path d="M108.2 0C99.4 11 90.7 22.1 86.8 36C83 49.9 84 66.7 76.5 76.5C68.9 86.3 52.8 89.2 38.7 93.3C24.5 97.4 12.2 102.8 0 108.2L0 0Z" fill="#FBAE3C"></path></g></svg>